<?xml version="1.0" encoding="UTF-8"?>
<svg id="Layer_1" data-name="Layer 1" xmlns="http://www.w3.org/2000/svg" viewBox="0 0 19.5 19.5">
  <defs>
    <style>
      .cls-1 {
        fill: none;
        stroke: #fff;
        stroke-linecap: round;
        stroke-linejoin: round;
        stroke-width: 1.5px;
      }
    </style>
  </defs>
  <path class="cls-1" d="M11.75,7.75l6.5-6.5M18.65,5.75l.09-3.98c.01-.48.02-.72-.13-.87-.15-.15-.39-.15-.87-.15h-3.99"/>
  <path class="cls-1" d="M7.75,7.75L1.25,1.25M5.75.75H1.75c-.47,0-.71,0-.85.15-.15.15-.15.38-.15.85v4"/>
  <path class="cls-1" d="M7.75,11.75l-6.5,6.5M.75,13.75v4c0,.47,0,.71.15.85.15.15.38.15.85.15h4"/>
  <path class="cls-1" d="M11.75,11.75l6.5,6.5M13.75,18.75h4c.47,0,.71,0,.85-.15.15-.15.15-.38.15-.85v-4"/>
</svg>