<?xml version="1.0" encoding="UTF-8"?>
<svg id="Layer_1" data-name="Layer 1" xmlns="http://www.w3.org/2000/svg" viewBox="0 0 21.5 21.5">
  <defs>
    <style>
      .cls-1 {
        stroke-linecap: round;
        stroke-linejoin: round;
        stroke-width: 2px;
      }

      .cls-1, .cls-2 {
        fill: none;
        stroke: #fff;
      }

      .cls-2 {
        stroke-width: 1.5px;
      }
    </style>
  </defs>
  <path class="cls-2" d="M.75,7.32c0-1.2.48-1.93,1.48-2.48l4.11-2.29c2.15-1.2,3.23-1.8,4.41-1.8s2.26.6,4.41,1.8l4.11,2.29c1,.56,1.48,1.29,1.48,2.48,0,.32,0,.49-.04.62-.19.7-.82.81-1.43.81H2.22c-.61,0-1.25-.11-1.43-.81-.04-.13-.04-.3-.04-.62Z"/>
  <path class="cls-1" d="M10.75,5.75h0"/>
  <path class="cls-2" d="M2.75,8.75v8.5M6.75,8.75v8.5"/>
  <path class="cls-2" d="M14.75,8.75v8.5M18.75,8.75v8.5"/>
  <path class="cls-2" d="M17.75,17.25H3.75c-1.66,0-3,1.34-3,3,0,.28.22.5.5.5h19c.28,0,.5-.22.5-.5,0-1.66-1.34-3-3-3Z"/>
</svg>