<?xml version="1.0" encoding="UTF-8"?>
<svg id="Layer_1" data-name="Layer 1" xmlns="http://www.w3.org/2000/svg" viewBox="0 0 44.28 47.3">
  <defs>
    <style>
      .cls-1 {
        fill: #fff;
        fill-rule: evenodd;
        stroke-width: 0px;
      }
    </style>
  </defs>
  <path class="cls-1" d="M23.49,23.56v-12.18c-6.72,0-12.17,5.41-12.17,12.18h12.17Z"/>
  <path class="cls-1" d="M4.8,12.86c2.23,2.23,5.84,2.23,8.06,0,2.23-2.23,2.23-5.84,0-8.06-2.23-2.23-5.84-2.23-8.06,0-2.23,2.23-2.23,5.84,0,8.06Z"/>
  <path class="cls-1" d="M11.33,23.56c0,6.72,5.44,12.16,12.16,12.16,5.1,0,9.46-3.13,11.27-7.58l9.52,7.08c-4.05,7.21-11.77,12.08-20.63,12.08-13.06,0-23.65-10.59-23.65-23.65l11.33-.09Z"/>
  <path class="cls-1" d="M23.49,11.4c4.32,0,8.11,2.25,10.27,5.65l9-7.33C38.46,3.83,31.5,0,23.65,0l-.16,11.4Z"/>
</svg>