<?xml version="1.0" encoding="UTF-8"?>
<svg id="Layer_1" data-name="Layer 1" xmlns="http://www.w3.org/2000/svg" viewBox="0 0 222.56 47.3">
  <defs>
    <style>
      .cls-1 {
        fill-rule: evenodd;
      }

      .cls-1, .cls-2 {
        fill: #231f20;
        stroke-width: 0px;
      }
    </style>
  </defs>
  <g>
    <path class="cls-2" d="M55.36,22.11c0-6.89,5.17-11.76,12.45-11.76,4.48,0,8.06,1.85,9.82,5.34l-4.14,2.41c-1.38-2.2-3.45-3.19-5.73-3.19-3.96,0-6.98,2.76-6.98,7.2s3.02,7.2,6.98,7.2c2.28,0,4.35-.99,5.73-3.19l4.14,2.41c-1.77,3.45-5.34,5.39-9.82,5.39-7.28,0-12.45-4.91-12.45-11.81Z"/>
    <path class="cls-2" d="M79.58,22.11c0-6.89,5.17-11.76,12.24-11.76s12.28,4.87,12.28,11.76-5.13,11.81-12.28,11.81-12.24-4.91-12.24-11.81ZM98.66,22.11c0-4.39-2.93-7.2-6.85-7.2s-6.81,2.8-6.81,7.2,2.93,7.2,6.81,7.2,6.85-2.8,6.85-7.2Z"/>
    <path class="cls-2" d="M147.26,20.43v13.18h-5.39v-12.5c0-4.09-1.9-6.08-5.17-6.08-3.53,0-5.99,2.33-5.99,6.89v11.68h-5.39v-12.5c0-4.09-1.9-6.08-5.17-6.08-3.58,0-5.99,2.33-5.99,6.89v11.68h-5.39V10.61h5.13v2.93c1.72-2.07,4.39-3.19,7.54-3.19,3.36,0,6.16,1.25,7.76,3.83,1.85-2.37,4.96-3.83,8.62-3.83,5.56,0,9.44,3.15,9.44,10.08Z"/>
    <path class="cls-2" d="M152.94,3.58c0-1.81,1.46-3.23,3.45-3.23s3.45,1.34,3.45,3.1c0,1.9-1.42,3.36-3.45,3.36s-3.45-1.42-3.45-3.23ZM153.68,10.61h5.39v23.01h-5.39V10.61Z"/>
    <path class="cls-2" d="M188.32,20.43v13.18h-5.39v-12.5c0-4.09-2.02-6.08-5.47-6.08-3.83,0-6.42,2.33-6.42,6.94v11.63h-5.39V10.61h5.13v2.97c1.77-2.11,4.57-3.23,7.93-3.23,5.52,0,9.61,3.15,9.61,10.08Z"/>
    <path class="cls-2" d="M192.06,31.33l2.07-4.09c2.03,1.34,5.13,2.28,8.01,2.28,3.4,0,4.83-.95,4.83-2.54,0-4.39-14.22-.26-14.22-9.44,0-4.35,3.92-7.2,10.13-7.2,3.06,0,6.55.73,8.62,1.98l-2.07,4.09c-2.2-1.29-4.39-1.72-6.59-1.72-3.27,0-4.83,1.08-4.83,2.59,0,4.65,14.22.52,14.22,9.52,0,4.31-3.96,7.11-10.43,7.11-3.83,0-7.67-1.12-9.74-2.59Z"/>
    <path class="cls-2" d="M215.67,3.58c0-1.81,1.46-3.23,3.45-3.23s3.45,1.34,3.45,3.1c0,1.9-1.42,3.36-3.45,3.36s-3.45-1.42-3.45-3.23ZM216.4,10.61h5.39v23.01h-5.39V10.61Z"/>
  </g>
  <path class="cls-1" d="M23.49,23.56v-12.18c-6.72,0-12.17,5.41-12.17,12.18h12.17Z"/>
  <path class="cls-1" d="M4.8,12.86c2.23,2.23,5.84,2.23,8.06,0,2.23-2.23,2.23-5.84,0-8.06-2.23-2.23-5.84-2.23-8.06,0-2.23,2.23-2.23,5.84,0,8.06Z"/>
  <path class="cls-1" d="M11.33,23.56c0,6.72,5.44,12.16,12.16,12.16,5.1,0,9.46-3.13,11.27-7.58l9.52,7.08c-4.05,7.21-11.77,12.08-20.63,12.08C10.59,47.3,0,36.71,0,23.65l11.33-.09Z"/>
  <path class="cls-1" d="M23.49,11.4c4.32,0,8.11,2.25,10.27,5.65l9-7.33C38.46,3.83,31.5,0,23.65,0l-.16,11.4Z"/>
</svg>