<?xml version="1.0" encoding="UTF-8"?>
<svg id="Layer_1" data-name="Layer 1" xmlns="http://www.w3.org/2000/svg" viewBox="0 0 19.5 19.5">
  <defs>
    <style>
      .cls-1 {
        fill: #fff;
        stroke-width: 0px;
      }
    </style>
  </defs>
  <path class="cls-1" d="M3.9,12.9h.75-.75ZM15.6,12.9h.75-.75ZM10.36,4.35v-.75h0v.75ZM13.26,4.58l.26-.7-.26.7ZM15.6,9.59h-.75.75ZM15.37,6.69l.7-.26-.7.26ZM9.14,4.35v.75h0v-.75ZM6.24,4.58l-.26-.7.26.7ZM3.9,9.59h-.75.75ZM4.13,6.69l-.7-.26.7.26ZM11.7,4.35c0,.41.34.75.75.75s.75-.34.75-.75h-1.5ZM6.3,4.35c0,.41.34.75.75.75s.75-.34.75-.75h-1.5ZM15.6,9.9c-.41,0-.75.34-.75.75s.34.75.75.75v-1.5ZM18.75,11.4c.41,0,.75-.34.75-.75s-.34-.75-.75-.75v1.5ZM3.9,11.4c.41,0,.75-.34.75-.75s-.34-.75-.75-.75v1.5ZM.75,9.9c-.41,0-.75.34-.75.75s.34.75.75.75v-1.5ZM.75,3h.75-.75ZM1.5,2.75c0-.41-.34-.75-.75-.75s-.75.34-.75.75h1.5ZM3.9,6.9c.41,0,.75-.34.75-.75s-.34-.75-.75-.75v1.5ZM19.5,2.75c0-.41-.34-.75-.75-.75s-.75.34-.75.75h1.5ZM15.6,5.4c-.41,0-.75.34-.75.75s.34.75.75.75v-1.5ZM4.35,15.9c.41,0,.75-.34.75-.75s-.34-.75-.75-.75v1.5ZM0,18.75c0,.41.34.75.75.75s.75-.34.75-.75H0ZM15.15,14.4c-.41,0-.75.34-.75.75s.34.75.75.75v-1.5ZM18,18.75c0,.41.34.75.75.75s.75-.34.75-.75h-1.5ZM10.5,14.25c0-.41-.34-.75-.75-.75s-.75.34-.75.75h1.5ZM9.14,5.1h1.23v-1.5h-1.23v1.5ZM14.85,9.59v3.31h1.5v-3.31h-1.5ZM4.65,12.9v-3.31h-1.5v3.31h1.5ZM9.75,18c-2.82,0-5.1-2.28-5.1-5.1h-1.5c0,3.65,2.95,6.6,6.6,6.6v-1.5ZM14.85,12.9c0,2.82-2.28,5.1-5.1,5.1v1.5c3.65,0,6.6-2.95,6.6-6.6h-1.5ZM10.36,5.1c.77,0,1.32,0,1.74.03.42.03.68.08.89.15l.52-1.41c-.4-.15-.83-.21-1.32-.24-.49-.03-1.08-.03-1.84-.03v1.5ZM16.35,9.59c0-.75,0-1.35-.03-1.84-.03-.49-.09-.92-.24-1.32l-1.41.52c.08.21.13.47.15.89.03.43.03.97.03,1.74h1.5ZM13,5.28c.77.29,1.39.9,1.67,1.67l1.41-.52c-.44-1.18-1.37-2.11-2.56-2.56l-.52,1.41ZM9.14,3.6c-.75,0-1.35,0-1.84.03-.49.03-.92.09-1.32.24l.52,1.41c.21-.08.47-.13.89-.15.43-.03.97-.03,1.74-.03v-1.5ZM4.65,9.59c0-.77,0-1.32.03-1.74.03-.42.08-.68.15-.89l-1.41-.52c-.15.4-.21.83-.24,1.32-.03.49-.03,1.08-.03,1.84h1.5ZM5.98,3.87c-1.18.44-2.11,1.37-2.56,2.56l1.41.52c.29-.77.9-1.39,1.67-1.67l-.52-1.41ZM9.75,1.5c.76,0,1.2.32,1.49.79.32.52.46,1.26.46,2.06h1.5c0-.94-.17-1.99-.68-2.84-.55-.9-1.46-1.51-2.77-1.51v1.5ZM7.8,4.35c0-.8.15-1.54.46-2.06.29-.47.73-.79,1.49-.79V0c-1.31,0-2.22.61-2.77,1.51-.52.85-.68,1.9-.68,2.84h1.5ZM15.6,11.4h3.15v-1.5h-3.15v1.5ZM3.9,9.9H.75v1.5h3.15v-1.5ZM1.5,3v-.25H0v.25h1.5ZM3.9,5.4c-1.33,0-2.4-1.07-2.4-2.4H0c0,2.15,1.75,3.9,3.9,3.9v-1.5ZM19.5,3v-.25h-1.5v.25h1.5ZM15.6,6.9c2.15,0,3.9-1.75,3.9-3.9h-1.5c0,1.33-1.07,2.4-2.4,2.4v1.5ZM4.35,14.4c-2.4,0-4.35,1.95-4.35,4.35h1.5c0-1.57,1.28-2.85,2.85-2.85v-1.5ZM15.15,15.9c1.57,0,2.85,1.28,2.85,2.85h1.5c0-2.4-1.95-4.35-4.35-4.35v1.5ZM10.5,18.75v-4.5h-1.5v4.5h1.5Z"/>
</svg>