<?xml version="1.0" encoding="UTF-8"?>
<svg id="Layer_1" data-name="Layer 1" xmlns="http://www.w3.org/2000/svg" viewBox="0 0 23.59 15.66">
  <defs>
    <style>
      .cls-1, .cls-2, .cls-3 {
        fill: none;
        stroke: #fff;
      }

      .cls-1, .cls-3 {
        stroke-linecap: round;
        stroke-linejoin: round;
      }

      .cls-3 {
        stroke-width: 1.5px;
      }
    </style>
  </defs>
  <path class="cls-2" d="M9.55,9.96h0M9.55,9.96c-.33.33-.93.25-1.35.25-.52,0-.77.1-1.14.47-.31.31-.74.88-1.23.88s-.92-.57-1.23-.88c-.37-.37-.62-.47-1.14-.47-.42,0-1.02.08-1.35-.25-.33-.33-.25-.94-.25-1.36,0-.54-.12-.78-.5-1.16-.57-.57-.85-.85-.85-1.2,0-.35.28-.64.85-1.2.34-.34.5-.68.5-1.16,0-.42-.08-1.02.25-1.35.33-.33.94-.25,1.36-.25.49,0,.82-.16,1.16-.5.57-.57.85-.85,1.2-.85s.64.28,1.2.85c.34.34.68.5,1.16.5.42,0,1.02-.08,1.35.25.33.33.25.94.25,1.36,0,.54.12.78.5,1.16"/>
  <path class="cls-1" d="M4.23,6.71l.96.86,2.24-2.66"/>
  <path class="cls-3" d="M17.35,1.88c-.76-.76-1.13-1.13-1.6-1.13s-.85.38-1.6,1.13c-.45.45-.9.67-1.55.67-.57,0-1.37-.11-1.81.33s-.33,1.24-.33,1.8c0,.64-.21,1.1-.67,1.55-.76.76-1.13,1.13-1.13,1.6s.38.85,1.13,1.6c.51.51.67.84.67,1.55,0,.57-.11,1.37.33,1.81.44.44,1.24.33,1.8.33.69,0,1.02.13,1.51.62.42.42.98,1.17,1.64,1.17s1.23-.75,1.64-1.17c.49-.49.82-.62,1.51-.62.56,0,1.36.11,1.8-.33M21.7,6.23c.76.76,1.13,1.13,1.13,1.6s-.38.85-1.13,1.6c-.51.51-.67.84-.67,1.55,0,.57.11,1.37-.33,1.81M20.7,12.79h0"/>
  <path class="cls-3" d="M13.27,6.06l2.48,2.48,6.38-7.08"/>
</svg>