<?xml version="1.0" encoding="UTF-8"?>
<svg id="Layer_1" data-name="Layer 1" xmlns="http://www.w3.org/2000/svg" viewBox="0 0 19.5 21.5">
  <defs>
    <style>
      .cls-1, .cls-2 {
        fill: none;
        stroke: #fff;
      }

      .cls-2 {
        stroke-linecap: round;
        stroke-linejoin: round;
        stroke-width: 1.5px;
      }
    </style>
  </defs>
  <path class="cls-2" d="M.75,8.43v-.77c0-1.5,0-2.25.28-2.88.17-.39.43-.74.74-1.04.51-.48,1.22-.74,2.66-1.27l2.95-1.08c1.17-.43,1.76-.64,2.37-.64s1.2.21,2.37.64l2.95,1.08c1.44.53,2.15.79,2.66,1.27.31.3.56.65.74,1.04.28.63.28,1.38.28,2.88v.77c0,2.4,0,3.61-.3,4.71-.37,1.36-1.06,2.61-2.03,3.65-.78.84-1.81,1.5-3.87,2.81-.92.59-1.38.88-1.88,1.02-.61.17-1.25.17-1.85,0-.49-.14-.95-.43-1.88-1.02-2.06-1.31-3.09-1.97-3.87-2.81-.96-1.04-1.66-2.29-2.03-3.65-.3-1.1-.3-2.3-.3-4.71Z"/>
  <g>
    <path class="cls-1" d="M5.53,12.04c0-2.33,1.89-4.22,4.22-4.22s4.22,1.89,4.22,4.22-1.89,4.22-4.22,4.22-4.22-1.89-4.22-4.22"/>
    <path class="cls-1" d="M12.21,8.53v-1.74c0-1.37-1.1-2.47-2.46-2.47s-2.46,1.11-2.46,2.47v1.74"/>
    <path class="cls-2" d="M9.75,12.04h0"/>
  </g>
</svg>