<?xml version="1.0" encoding="UTF-8"?>
<svg id="Layer_1" data-name="Layer 1" xmlns="http://www.w3.org/2000/svg" viewBox="0 0 21.5 21.5">
  <defs>
    <style>
      .cls-1 {
        stroke-linecap: round;
      }

      .cls-1, .cls-2 {
        fill: none;
        stroke: #fff;
        stroke-width: 1.5px;
      }
    </style>
  </defs>
  <path class="cls-2" d="M10.75,20.75V4.75c0-1.89,0-2.83-.59-3.41-.59-.59-1.53-.59-3.41-.59h-2c-1.89,0-2.83,0-3.41.59-.59.59-.59,1.53-.59,3.41v12c0,1.89,0,2.83.59,3.41.59.59,1.53.59,3.41.59h6Z"/>
  <path class="cls-2" d="M10.75,20.75h6c1.89,0,2.83,0,3.41-.59s.59-1.53.59-3.41v-6c0-1.89,0-2.83-.59-3.41-.59-.59-1.53-.59-3.41-.59h-6"/>
  <path class="cls-1" d="M17.25,14.75h-3M17.25,10.75h-3"/>
  <path class="cls-1" d="M7.25,12.75h-3M7.25,8.75h-3M7.25,4.75h-3"/>
</svg>