<?xml version="1.0" encoding="UTF-8"?>
<svg id="Layer_1" data-name="Layer 1" xmlns="http://www.w3.org/2000/svg" viewBox="0 0 21.5 21.5">
  <defs>
    <style>
      .cls-1, .cls-2 {
        fill: none;
        stroke: #fff;
        stroke-width: 1.5px;
      }

      .cls-3 {
        fill: #fff;
        stroke-width: 0px;
      }

      .cls-2 {
        stroke-linecap: round;
        stroke-linejoin: round;
      }
    </style>
  </defs>
  <ellipse class="cls-1" cx="6.75" cy="2.75" rx="6" ry="2"/>
  <path class="cls-2" d="M14.25,7.75c-3.59,0-6.5,2.91-6.5,6.5s2.91,6.5,6.5,6.5,6.5-2.91,6.5-6.5-2.91-6.5-6.5-6.5Z"/>
  <path class="cls-3" d="M12,4.87c0,.41.34.75.75.75s.75-.34.75-.75h-1.5ZM4.8,13.4c.41.04.78-.25.83-.66.04-.41-.25-.78-.66-.83l-.16,1.49ZM6.49,9.5c.41,0,.75-.33.76-.74,0-.41-.33-.75-.74-.76l-.02,1.5ZM1.5,10.75V2.75H0v8h1.5ZM13.5,4.87v-2.12h-1.5v2.12h1.5ZM4.97,11.91c-1.15-.13-2.1-.37-2.74-.65-.32-.14-.52-.29-.64-.4-.11-.11-.09-.14-.09-.1H0c0,.48.24.88.53,1.17.29.29.67.52,1.08.7.83.38,1.95.64,3.19.78l.16-1.49ZM6.51,8c-1.54-.02-2.9-.24-3.84-.57-.48-.16-.81-.34-1-.5-.2-.16-.17-.23-.17-.18H0c0,.59.35,1.04.73,1.34.38.31.89.56,1.45.75,1.13.39,2.66.63,4.31.65l.02-1.5Z"/>
  <path class="cls-2" d="M12.69,16.92v-5.33M14.25,11.58v-1.33M14.25,18.25v-1.33M12.69,14.25h3.12M15.81,14.25c.52,0,.94.45.94,1v.67c0,.55-.42,1-.94,1h-4.06M15.81,14.25c.52,0,.94-.45.94-1v-.67c0-.55-.42-1-.94-1h-4.06"/>
</svg>