<?xml version="1.0" encoding="UTF-8"?>
<svg id="Layer_1" data-name="Layer 1" xmlns="http://www.w3.org/2000/svg" viewBox="0 0 21.5 19.5">
  <defs>
    <style>
      .cls-1 {
        stroke-linecap: square;
      }

      .cls-1, .cls-2, .cls-3 {
        fill: none;
        stroke: #fff;
        stroke-width: 1.5px;
      }

      .cls-1, .cls-3 {
        stroke-linejoin: round;
      }

      .cls-3 {
        stroke-linecap: round;
      }
    </style>
  </defs>
  <path class="cls-2" d="M15.75,8.55c0-.35,0-.52.05-.67.15-.45.55-.62.95-.8.45-.2.67-.31.9-.32.25-.02.51.03.72.16.29.16.49.47.69.71.94,1.15,1.42,1.72,1.59,2.35.14.51.14,1.04,0,1.55-.25.92-1.05,1.69-1.64,2.41-.3.37-.45.55-.64.66-.22.12-.47.18-.72.16-.22-.02-.45-.12-.9-.32-.4-.18-.8-.36-.95-.8-.05-.15-.05-.33-.05-.67v-4.39Z"/>
  <path class="cls-2" d="M5.75,8.55c0-.44-.01-.83-.36-1.13-.13-.11-.3-.19-.64-.34-.45-.2-.67-.31-.9-.32-.67-.05-1.03.4-1.41.87-.94,1.15-1.42,1.72-1.59,2.35-.14.51-.14,1.04,0,1.55.25.92,1.05,1.69,1.64,2.41.37.45.73.86,1.36.81.22-.02.45-.12.9-.32.34-.15.51-.23.64-.34.35-.31.36-.7.36-1.13v-4.39Z"/>
  <path class="cls-1" d="M3.75,6.75C3.75,3.44,6.88.75,10.75.75s7,2.69,7,6"/>
  <path class="cls-3" d="M17.75,14.75v.8c0,1.77-1.79,3.2-4,3.2h-2"/>
</svg>