<?xml version="1.0" encoding="UTF-8"?>
<svg id="Layer_1" data-name="Layer 1" xmlns="http://www.w3.org/2000/svg" viewBox="0 0 19.5 21.5">
  <defs>
    <style>
      .cls-1, .cls-2 {
        fill: none;
        stroke: #fff;
        stroke-linecap: round;
        stroke-width: 1.5px;
      }

      .cls-2 {
        stroke-linejoin: round;
      }
    </style>
  </defs>
  <path class="cls-1" d="M10.75.75c-.72,0-1.59,0-1.86.19-.27.19-.38.52-.61,1.18l-.34,1c-.16.4-.44.74-.81.97l-.35.19c-.43.22-.93.28-1.4.17l-1.26-.34c-.74-.2-1.11-.31-1.44-.18-.33.13-.52.45-.91,1.1l-.51.86c-.36.61-.54.91-.51,1.23.04.32.28.58.76,1.11l1.06,1.15c.26.32.44.88.44,1.38s-.18,1.06-.44,1.38l-1.06,1.15c-.48.52-.73.78-.76,1.11-.04.32.15.63.51,1.23l.51.86c.39.65.58.97.91,1.1.33.13.7.03,1.44-.18l1.26-.34c.47-.11.97-.05,1.4.17l.35.19c.37.23.66.57.81.97l.34,1c.23.66.34.99.61,1.18.27.19,1.14.18,1.86.18"/>
  <path class="cls-1" d="M10.75,14.25c-1.93,0-3.5-1.57-3.5-3.5s1.57-3.5,3.5-3.5"/>
  <path class="cls-2" d="M18,3.5l-2.25,2.25h-2M17.25,3.5c0,.41.34.75.75.75s.75-.34.75-.75-.34-.75-.75-.75-.75.34-.75.75Z"/>
  <path class="cls-2" d="M18,18l-2.25-2.25h-2M17.25,18c0-.41.34-.75.75-.75s.75.34.75.75-.34.75-.75.75-.75-.34-.75-.75Z"/>
  <path class="cls-2" d="M18,10.75h-4.25M17.25,10.75c0,.41.34.75.75.75s.75-.34.75-.75-.34-.75-.75-.75-.75.34-.75.75Z"/>
</svg>