<?xml version="1.0" encoding="UTF-8"?>
<svg id="Layer_1" data-name="Layer 1" xmlns="http://www.w3.org/2000/svg" viewBox="0 0 19.5 21.5">
  <defs>
    <style>
      .cls-1, .cls-2 {
        fill: none;
        stroke: #fff;
        stroke-linecap: round;
        stroke-width: 1.5px;
      }

      .cls-3 {
        fill: #fff;
        stroke-width: 0px;
      }

      .cls-2 {
        stroke-linejoin: round;
      }
    </style>
  </defs>
  <path class="cls-1" d="M15.75,7.51v-1.96c0-2.26,0-3.39-.78-4.1-.78-.7-2.02-.7-4.52-.7h-4.41C3.55.75,2.3.75,1.53,1.45c-.78.7-.78,1.83-.78,4.1v6.4c0,2.26,0,3.39.78,4.1.78.7,2.02.7,4.52.7h4.41"/>
  <path class="cls-2" d="M3.75,4.75h9"/>
  <path class="cls-2" d="M3.75,8.75h1"/>
  <path class="cls-2" d="M7.75,8.75h1"/>
  <path class="cls-2" d="M11.75,8.75h1"/>
  <path class="cls-2" d="M3.75,12.75h1"/>
  <path class="cls-2" d="M7.75,12.75h1"/>
  <path class="cls-3" d="M17.73,13.94c.11.4.52.64.92.53.4-.11.64-.52.53-.92l-1.45.39ZM13.47,17.54c-.12-.4-.53-.63-.93-.51-.4.12-.63.53-.51.93l1.44-.42ZM16.48,10.75c0-.41-.34-.75-.75-.75s-.75.34-.75.75h1.5ZM14.98,20.75c0,.41.34.75.75.75s.75-.34.75-.75h-1.5ZM15.73,14.87c-.97,0-1.49-.14-1.76-.3-.12-.07-.17-.14-.2-.2-.03-.06-.06-.16-.06-.31h-1.5c0,.34.07.69.24,1.02.17.33.43.59.76.78.62.37,1.48.51,2.53.51v-1.5ZM13.71,14.06c0-.17.1-.41.47-.66.36-.24.91-.41,1.55-.41v-1.5c-.89,0-1.73.23-2.37.65-.63.42-1.15,1.07-1.15,1.91h1.5ZM18,17.44c0,.32-.14.55-.49.73-.39.21-1.01.33-1.78.33v1.5c.89,0,1.79-.14,2.49-.51.74-.4,1.28-1.08,1.28-2.06h-1.5ZM15.73,16.37c.97,0,1.56.13,1.89.32.15.09.23.18.28.27.05.1.1.24.1.47h1.5c0-.42-.08-.83-.28-1.19-.2-.37-.49-.65-.85-.85-.68-.39-1.6-.52-2.64-.52v1.5ZM15.73,13c.57,0,1.07.14,1.43.34.37.2.53.44.58.61l1.45-.39c-.18-.68-.7-1.2-1.3-1.53-.61-.34-1.36-.52-2.16-.52v1.5ZM15.73,18.5c-.64,0-1.21-.14-1.61-.35-.42-.22-.6-.46-.64-.61l-1.44.42c.2.7.77,1.21,1.4,1.53.65.33,1.45.51,2.3.51v-1.5ZM16.48,12.25v-1.5h-1.5v1.5h1.5ZM14.98,19.25v1.5h1.5v-1.5h-1.5Z"/>
</svg>