<?xml version="1.0" encoding="UTF-8"?>
<svg id="Layer_1" data-name="Layer 1" xmlns="http://www.w3.org/2000/svg" viewBox="0 0 19.5 21.5">
  <defs>
    <style>
      .cls-1 {
        fill: none;
        stroke: #fff;
        stroke-linecap: round;
        stroke-linejoin: round;
        stroke-width: 1.5px;
      }
    </style>
  </defs>
  <path class="cls-1" d="M9.75.75c-2.21,0-4,1.85-4,4.14,0,.75.19,1.46.54,2.07-2.58-.69-5.54,1.3-5.54,4.14,0,3.2,3.14,4.68,5.81,3.98.86-.23,1.3-.34,1.42-.21.47.51-.88,3.04-1.13,3.54-.46.94-.69,1.41-.51,1.71.42.7,6.22.99,6.81,0,.18-.29-.05-.76-.51-1.71-.24-.5-1.59-3.03-1.13-3.54.12-.13.55-.02,1.42.21,2.66.69,5.81-.81,5.81-3.98,0-2.82-2.97-4.82-5.54-4.14.34-.61.54-1.32.54-2.07,0-2.29-1.79-4.14-4-4.14Z"/>
</svg>