<?xml version="1.0" encoding="UTF-8"?>
<svg id="Layer_1" data-name="Layer 1" xmlns="http://www.w3.org/2000/svg" viewBox="0 0 20.5 21.5">
  <defs>
    <style>
      .cls-1 {
        stroke-linecap: round;
      }

      .cls-1, .cls-2 {
        fill: none;
        stroke: #fff;
        stroke-width: 1.5px;
      }
    </style>
  </defs>
  <path class="cls-2" d="M12.51,17.12c.32-.96.47-1.45.8-1.78.15-.16.33-.29.53-.39.41-.21.91-.21,1.91-.21s1.5,0,1.91.21c.2.1.37.23.53.39.32.33.48.81.8,1.78l.33,1c.39,1.2.59,1.8.3,2.22s-.92.42-2.16.42h-3.39c-1.25,0-1.87,0-2.16-.42-.29-.42-.1-1.02.3-2.22l.33-1Z"/>
  <path class="cls-2" d="M7.01,9.12c.32-.96.47-1.45.8-1.78.15-.16.33-.29.53-.39.41-.21.91-.21,1.91-.21s1.5,0,1.91.21c.2.1.37.23.53.39.32.33.48.81.8,1.78l.33,1c.39,1.2.59,1.8.3,2.22-.29.42-.92.42-2.16.42h-3.39c-1.25,0-1.87,0-2.16-.42-.29-.42-.1-1.02.3-2.22l.33-1Z"/>
  <path class="cls-2" d="M1.51,17.12c.32-.96.47-1.45.8-1.78.15-.16.33-.29.53-.39.41-.21.91-.21,1.91-.21s1.5,0,1.91.21c.2.1.37.23.53.39.32.33.48.81.8,1.78l.33,1c.39,1.2.59,1.8.3,2.22-.29.42-.92.42-2.16.42h-3.39c-1.25,0-1.87,0-2.16-.42-.29-.42-.1-1.02.3-2.22l.33-1Z"/>
  <path class="cls-1" d="M10.25.75v2M5.75,2.25l1.5,1.5M14.75,2.25l-1.5,1.5"/>
</svg>