<?xml version="1.0" encoding="UTF-8"?>
<svg id="Layer_1" data-name="Layer 1" xmlns="http://www.w3.org/2000/svg" viewBox="0 0 20.5 21.5">
  <defs>
    <style>
      .cls-1, .cls-2, .cls-3 {
        fill: none;
        stroke: #fff;
        stroke-width: 1.5px;
      }

      .cls-1, .cls-3 {
        stroke-linecap: round;
      }

      .cls-4 {
        fill: #fff;
        stroke-width: 0px;
      }

      .cls-3 {
        stroke-linejoin: round;
      }
    </style>
  </defs>
  <path class="cls-1" d="M14.75,15.75l1,1M15.75,16.75l1,1M15.75,16.75l1-1M15.75,16.75l-1,1M19.75,16.75c0,2.21-1.79,4-4,4s-4-1.79-4-4,1.79-4,4-4,4,1.79,4,4Z"/>
  <path class="cls-4" d="M5.2,16.24c-.28.3-.27.78.03,1.06.3.28.78.27,1.06-.03l-1.09-1.03ZM8.83,16c.41-.04.71-.41.67-.82s-.41-.71-.82-.67l.16,1.49ZM1.78,19.78l-.52.54.52-.54ZM16.72,3.72l-.52.54.52-.54ZM1.78,3.72l.52.54-.52-.54ZM6.75,3.5c.41,0,.75-.34.75-.75,0-.41-.34-.75-.75-.75v1.5ZM11.75,2c-.41,0-.75.33-.75.75,0,.41.33.75.75.75v-1.5ZM17,10.75c0,.41.34.75.75.75s.75-.34.75-.75h-1.5ZM8.75,21.5c.41,0,.75-.34.75-.75s-.34-.75-.75-.75v1.5ZM7.22,4.58l.39-.64-.39.64ZM6.94,2.74l-.73-.17h0l.73.17ZM6.81,4.13l-.68.31.68-.31ZM11.56,2.74l.73-.17-.73.17ZM11.69,4.13l.68.31-.68-.31ZM11.28,4.58l.39.64-.39-.64ZM10.16.8l-.17.73.17-.73ZM11.48,2.38l-.73.17.73-.17ZM11.24,1.59l-.66.36.66-.36ZM8.34.8l.17.73-.17-.73ZM7.02,2.38l.73.17h0l-.73-.17ZM7.26,1.59l.66.36-.66-.36ZM10.5,10.75c0,.7-.56,1.25-1.22,1.25v1.5c1.51,0,2.72-1.24,2.72-2.75h-1.5ZM9.28,12c-.66,0-1.22-.55-1.22-1.25h-1.5c0,1.51,1.21,2.75,2.72,2.75v-1.5ZM8.06,10.75c0-.7.56-1.25,1.22-1.25v-1.5c-1.51,0-2.72,1.24-2.72,2.75h1.5ZM9.28,9.5c.66,0,1.22.55,1.22,1.25h1.5c0-1.51-1.21-2.75-2.72-2.75v1.5ZM6.3,17.26c.68-.72,1.58-1.17,2.53-1.27l-.16-1.49c-1.32.14-2.55.75-3.47,1.73l1.09,1.03ZM1.5,14.12v-4.74H0v4.74h1.5ZM7.75,20c-1.67,0-2.85,0-3.75-.12-.88-.11-1.36-.32-1.71-.65l-1.03,1.09c.68.64,1.53.92,2.56,1.05,1.01.13,2.31.13,3.94.13v-1.5ZM0,14.12C0,15.66,0,16.89.14,17.86c.14.99.44,1.81,1.12,2.46l1.03-1.09c-.34-.32-.55-.77-.67-1.58-.12-.84-.12-1.95-.12-3.53H0ZM18.5,9.38c0-1.54,0-2.78-.14-3.74-.14-.99-.44-1.81-1.12-2.46l-1.03,1.09c.34.32.55.77.67,1.58.12.84.12,1.95.12,3.53h1.5ZM1.5,9.38c0-1.59,0-2.69.12-3.53.12-.81.33-1.26.67-1.58l-1.03-1.09c-.68.65-.98,1.47-1.12,2.46C0,6.61,0,7.84,0,9.38h1.5ZM6.75,2c-1.31,0-2.39.03-3.26.17-.89.15-1.63.43-2.23,1l1.03,1.09c.31-.3.74-.49,1.45-.61.73-.12,1.69-.15,3.02-.15v-1.5ZM11.75,3.5c1.33,0,2.29.03,3.02.15.71.12,1.13.32,1.45.61l1.03-1.09c-.6-.57-1.35-.85-2.23-1-.87-.14-1.94-.17-3.26-.17v1.5ZM17,9.38v1.37h1.5v-1.37h-1.5ZM8.75,20h-1v1.5h1v-1.5ZM10.75,2.55l.08.36,1.46-.34-.08-.36-1.46.34ZM9.75,4h-1v1.5h1v-1.5ZM7.67,2.91l.08-.36-1.46-.34-.08.36,1.46.34ZM8.75,4c-.43,0-.7,0-.91-.02-.1,0-.16-.02-.19-.03-.02,0-.03,0-.03-.01,0,0,0,0,0,0,0,0,0,0,0,0,0,0,0,0,0,0l-.78,1.28c.29.17.59.23.88.26.28.02.64.02,1.04.02v-1.5ZM6.21,2.57c-.08.35-.16.67-.19.94-.03.28-.04.6.11.92l1.37-.62s0,.04.01-.12c.02-.17.07-.4.16-.78l-1.46-.34ZM7.61,3.94c-.06-.04-.1-.08-.11-.12l-1.37.62c.15.33.4.6.7.78l.78-1.28ZM10.83,2.91c.09.38.14.61.16.78.02.16,0,.16.01.12l1.37.62c.15-.32.14-.64.11-.92-.03-.27-.11-.59-.19-.94l-1.46.34ZM9.75,5.5c.4,0,.76,0,1.04-.02.29-.03.6-.08.88-.26l-.78-1.28s0,0,0,0c0,0,0,0,0,0,0,0,0,0,0,0,0,0-.02,0-.03.01-.04,0-.1.02-.19.03-.2.02-.48.02-.91.02v1.5ZM11.01,3.82s-.05.08-.11.12l.78,1.28c.3-.18.55-.45.7-.78l-1.37-.62ZM9.25,1.5c.51,0,.64,0,.74.03l.34-1.46C10.02,0,9.68,0,9.25,0v1.5ZM12.21,2.21c-.09-.37-.16-.7-.31-.98l-1.32.72c.03.06.06.14.16.6l1.46-.34ZM9.99,1.53c.28.06.49.23.59.42l1.32-.72c-.33-.6-.91-1.01-1.57-1.17l-.34,1.46ZM9.25,0C8.82,0,8.48,0,8.17.07l.34,1.46c.1-.02.23-.03.74-.03V0ZM7.75,2.55c.11-.46.13-.54.16-.6l-1.32-.72c-.15.28-.22.61-.31.98l1.46.34ZM8.17.07c-.66.15-1.25.57-1.57,1.17l1.32.72c.1-.19.31-.36.59-.42l-.34-1.46Z"/>
  <path class="cls-1" d="M5.75,16.75c.92-.98,2.22-1.49,3.53-1.5M11.25,10.75c0,1.1-.88,2-1.97,2s-1.97-.9-1.97-2,.88-2,1.97-2,1.97.9,1.97,2Z"/>
  <path class="cls-3" d="M6.75,2.75c-2.64,0-4.06.1-4.97.97-1.03.97-1.03,2.53-1.03,5.66v4.74c0,3.13,0,4.69,1.03,5.66,1.03.97,2.68.97,5.97.97h2M11.75,2.75c2.64,0,4.06.1,4.97.97,1.03.97,1.03,2.53,1.03,5.66v.87"/>
  <path class="cls-2" d="M7.02,2.38c.1-.41.14-.62.24-.79.21-.39.61-.68,1.08-.79.2-.05.44-.05.91-.05s.71,0,.91.05c.47.11.87.4,1.08.79.09.17.14.38.24.79l.08.36c.17.74.26,1.1.13,1.39-.08.18-.22.34-.41.45-.28.17-.7.17-1.53.17h-1c-.83,0-1.25,0-1.53-.17-.18-.11-.32-.27-.41-.45-.13-.28-.04-.65.13-1.39l.08-.36Z"/>
</svg>