<?xml version="1.0" encoding="UTF-8"?>
<svg id="Layer_1" data-name="Layer 1" xmlns="http://www.w3.org/2000/svg" viewBox="0 0 17.5 21.5">
  <defs>
    <style>
      .cls-1, .cls-2, .cls-3 {
        fill: none;
        stroke: #fff;
        stroke-width: 1.5px;
      }

      .cls-1, .cls-3 {
        stroke-linecap: round;
      }

      .cls-3 {
        stroke-linejoin: round;
      }
    </style>
  </defs>
  <path class="cls-1" d="M1.89,12.75c-.73-1.19-1.14-2.59-1.14-4.08C.75,4.3,4.33.75,8.75.75s8,3.55,8,7.92c0,1.49-.42,2.89-1.14,4.08"/>
  <path class="cls-2" d="M4.13,15.85c-.09-.28-.14-.41-.13-.53.01-.24.16-.45.38-.53.1-.04.25-.04.54-.04h7.66c.29,0,.44,0,.54.04.22.09.37.29.38.53,0,.11-.04.25-.13.53-.17.51-.25.77-.39.97-.27.43-.7.74-1.2.87-.24.06-.51.06-1.04.06h-3.98c-.54,0-.81,0-1.04-.06-.5-.12-.93-.44-1.2-.87-.13-.21-.22-.46-.39-.97Z"/>
  <path class="cls-2" d="M11.75,17.75l-.13.65c-.14.71-.21,1.06-.37,1.34-.24.43-.64.76-1.11.91-.3.1-.67.1-1.39.1s-1.08,0-1.39-.1c-.47-.16-.87-.48-1.11-.91-.16-.28-.23-.63-.37-1.34l-.13-.65"/>
  <path class="cls-3" d="M8.75,14.75v-5"/>
</svg>