<?xml version="1.0" encoding="UTF-8"?>
<svg id="Layer_1" data-name="Layer 1" xmlns="http://www.w3.org/2000/svg" viewBox="0 0 20.52 20.5">
  <defs>
    <style>
      .cls-1 {
        stroke-width: 1.5px;
      }

      .cls-1, .cls-2 {
        stroke-linecap: round;
        stroke-linejoin: round;
      }

      .cls-1, .cls-2, .cls-3 {
        fill: none;
        stroke: #de5a2f;
      }
    </style>
  </defs>
  <path class="cls-1" d="M7.39.75c-2.67.06-4.22.31-5.29,1.37-.93.93-1.24,2.23-1.35,4.33M13.13.75c2.67.06,4.22.31,5.29,1.37.93.93,1.24,2.23,1.35,4.33M13.13,19.75c2.67-.06,4.22-.31,5.29-1.37.93-.93,1.24-2.23,1.35-4.33M7.39,19.75c-2.67-.06-4.22-.31-5.29-1.37-.93-.93-1.24-2.23-1.35-4.33"/>
  <path class="cls-2" d="M4.91,9.31l.09,1.92c.1,2.05.15,3.07.84,3.7.69.63,1.77.63,3.92.63h1.02c2.15,0,3.23,0,3.92-.63.69-.63.74-1.65.84-3.7l.09-1.92"/>
  <path class="cls-3" d="M4.82,8.98c1.01,1.92,3.29,2.71,5.44,2.71s4.43-.79,5.44-2.71c.48-.92.12-2.64-1.07-2.64H5.89c-1.19,0-1.55,1.73-1.07,2.64Z"/>
  <path class="cls-1" d="M10.26,9.31h0"/>
  <path class="cls-3" d="M12.64,6.34l-.05-.18c-.26-.92-.39-1.37-.7-1.64-.31-.26-.73-.26-1.55-.26h-.14c-.83,0-1.24,0-1.55.26-.31.26-.44.72-.7,1.64l-.05.18"/>
</svg>