<?xml version="1.0" encoding="UTF-8"?>
<svg id="Layer_1" data-name="Layer 1" xmlns="http://www.w3.org/2000/svg" viewBox="0 0 21.5 21.5">
  <defs>
    <style>
      .cls-1, .cls-2 {
        fill: none;
        stroke: #fff;
        stroke-linejoin: round;
        stroke-width: 1.5px;
      }

      .cls-3 {
        fill: #fff;
        stroke-width: 0px;
      }

      .cls-2 {
        stroke-linecap: round;
      }
    </style>
  </defs>
  <path class="cls-1" d="M8.75,10.35l-4.93,5.78c-.66.78-1.84.82-2.56.1-.72-.72-.67-1.9.1-2.56l5.78-4.93"/>
  <path class="cls-2" d="M16.75,8.8l-4.95,4.95M8.7.75L3.75,5.7M8.08,1.37l-3.71,3.71s1.86,2.48,3.71,4.33c1.86,1.86,4.33,3.71,4.33,3.71l3.71-3.71s-1.86-2.48-3.71-4.33c-1.86-1.86-4.33-3.71-4.33-3.71Z"/>
  <path class="cls-3" d="M10.21,20.39c-.2.36-.07.82.29,1.02.36.2.82.07,1.02-.29l-1.31-.73ZM11.53,19.54l.66.36h0l-.66-.36ZM17.98,21.11c.2.36.66.49,1.02.29.36-.2.49-.66.29-1.02l-1.31.73ZM17.97,19.54l.66-.36h0l-.66.36ZM17.14,18.31l.49-.57h0l-.49.57ZM16.34,17.87l-.23.71.23-.71ZM12.36,18.31l-.49-.57h0l.49.57ZM13.16,17.87l-.23-.71h0l.23.71ZM9.75,20c-.41,0-.75.34-.75.75s.34.75.75.75v-1.5ZM19.75,21.5c.41,0,.75-.34.75-.75s-.34-.75-.75-.75v1.5ZM11.52,21.11l.67-1.21-1.31-.73-.67,1.21,1.31.73ZM19.29,20.39l-.67-1.21-1.31.73.67,1.21,1.31-.73ZM18.62,19.17c-.34-.61-.59-1.09-.99-1.43l-.98,1.14c.15.13.27.32.66,1.03l1.31-.73ZM14.75,18.5c.87,0,1.14,0,1.37.08l.46-1.43c-.5-.16-1.05-.15-1.82-.15v1.5ZM17.63,17.74c-.31-.26-.67-.46-1.05-.59l-.46,1.43c.2.07.38.17.53.29l.98-1.14ZM12.19,19.9c.39-.71.51-.9.66-1.03l-.98-1.14c-.4.35-.65.82-.99,1.43l1.31.73ZM14.75,17c-.77,0-1.32,0-1.82.15l.46,1.43c.22-.07.49-.08,1.37-.08v-1.5ZM12.85,18.87c.15-.13.33-.23.53-.29l-.46-1.43c-.39.12-.75.32-1.05.59l.98,1.14ZM9.75,21.5h10v-1.5h-10v1.5Z"/>
  <path class="cls-2" d="M18.75,10.39l2-1.64M18.75,13.66l2,1.09"/>
</svg>