<?xml version="1.0" encoding="UTF-8"?>
<svg id="Layer_1" data-name="Layer 1" xmlns="http://www.w3.org/2000/svg" viewBox="0 0 21.5 21.5">
  <defs>
    <style>
      .cls-1 {
        fill: #fff;
        stroke-width: 0px;
      }
    </style>
  </defs>
  <path class="cls-1" d="M.22,11.16c-.29.29-.29.77,0,1.06.29.29.77.29,1.06,0l-1.06-1.06ZM10.18.83l.2-.72h0l-.2.72ZM12.57,1.5l.2-.72h0l-.2.72ZM13.6,2.18l-.58.47h0l.58-.47ZM19.35,11.07l-.68.31h0l.68-.31ZM7.39,2.3l-.55-.51.55.51ZM9.63,5.49l-.12-.74h0l.12.74ZM12.48,6.81l.59-.46h0l-.59.46ZM13.46,10.38l-.75.08h0l.75-.08ZM14.21,12.32l-.42.62c.32.21.74.16.99-.13.25-.29.24-.72-.02-1l-.55.51ZM6.38,12.98c-.26.33-.2.8.12,1.05.33.26.8.2,1.05-.12l-1.18-.93ZM6.36,4.12l-.74.13.74-.13ZM20.53,16.35l.7.28-.7-.28ZM16.29,19l.23.71-.23-.71ZM11.21,5.37l.29-.69h0l-.29.69ZM8.95,19.15l.54.52h0l-.54-.52ZM1.3,18.56c-.28-.3-.76-.32-1.06-.04-.3.28-.32.76-.04,1.06l1.1-1.02ZM9.13,18.9l.27-.7c-.34-.13-.73,0-.92.32l.65.38ZM9.1,18.96l-.65-.38h0l.65.38ZM9.53,11.58l.23.71-.23-.71ZM9.98,1.56l2.39.67.4-1.44L10.38.11l-.4,1.44ZM13.01,2.66c2.59,3.19,4.24,5.63,5.65,8.73l1.37-.62c-1.48-3.25-3.22-5.8-5.85-9.05l-1.17.94ZM12.72,10.47c.09.78.34,1.7.94,2.36l1.1-1.02c-.29-.32-.49-.87-.56-1.51l-1.49.17ZM11.89,7.26c.2.26.33.43.43.57.11.15.12.18.11.16l1.39-.55c-.07-.17-.18-.34-.29-.48-.11-.16-.27-.36-.46-.6l-1.19.91ZM14.21,10.3c-.09-.84-.16-1.48-.22-1.92-.03-.22-.05-.4-.07-.54-.02-.11-.04-.27-.1-.4l-1.39.55c-.02-.05-.02-.06,0,.08.02.11.04.27.07.49.05.43.12,1.06.22,1.9l1.49-.17ZM6.84,1.79c-.36.39-.7.76-.92,1.11-.25.39-.39.83-.3,1.35l1.48-.26c-.01-.06-.02-.12.09-.29.13-.21.36-.46.76-.89l-1.1-1.02ZM18.67,11.38c.59,1.31,1,2.2,1.2,2.95.19.71.18,1.21-.03,1.74l1.39.56c.36-.9.34-1.75.09-2.69-.24-.89-.71-1.92-1.28-3.18l-1.37.62ZM16.52,19.71c1.2-.39,2.19-.72,2.95-1.14.81-.45,1.39-1.03,1.75-1.93l-1.39-.56c-.21.53-.53.87-1.09,1.18-.61.34-1.44.62-2.69,1.03l.47,1.42ZM9.75,6.23c.45-.07.75-.12.97-.14.24-.02.25,0,.2-.02l.57-1.39c-.31-.13-.64-.11-.91-.09-.29.03-.65.09-1.08.16l.24,1.48ZM8.42,18.63c-.88.91-2.21,1.39-3.58,1.37-1.37-.01-2.68-.51-3.54-1.44l-1.1,1.02c1.19,1.29,2.93,1.91,4.63,1.93,1.7.02,3.45-.57,4.67-1.83l-1.08-1.04ZM16.05,18.28c-2.33.77-4.31.84-6.65-.08l-.55,1.4c2.72,1.06,5.06.96,7.66.11l-.47-1.42ZM9.74,19.34l.03-.06-1.29-.76-.03.06,1.29.76ZM9.49,19.67c.1-.1.18-.22.25-.33l-1.29-.76s-.03.04-.03.05l1.08,1.04ZM14.63,11.7c-1.06-.72-3.16-1.53-5.33-.83l.46,1.43c1.59-.51,3.21.09,4.03.65l.84-1.24ZM9.3,10.86c-1.03.33-2.04,1-2.93,2.11l1.18.93c.71-.9,1.47-1.38,2.21-1.62l-.46-1.43ZM10.05,11.03c-1.3-1.23-3.15-1.79-4.94-1.77-1.79.02-3.63.63-4.89,1.9l1.06,1.06c.92-.93,2.35-1.44,3.84-1.45,1.49-.02,2.94.46,3.89,1.36l1.03-1.09ZM10.93,6.07c.08.03.21.13.4.39.09.12.17.24.27.39.09.13.19.29.3.42l1.19-.91c-.07-.09-.15-.21-.24-.35-.09-.14-.2-.3-.32-.45-.22-.29-.55-.68-1.02-.87l-.57,1.39ZM12.37,2.22c.16.04.25.07.31.09.03.01.05.02.05.02,0,0,0,0,0,0,0,0,0,0,0,0,0,0,0,0,0,0h0s0,0,0,0c0,0,0,0,0,0,0,0,0,0,0,0,0,0,.02.02.05.05.05.05.11.13.22.26l1.17-.94c-.18-.22-.36-.46-.61-.62-.25-.17-.54-.24-.8-.31l-.4,1.44ZM10.38.11c-.91-.25-1.63-.05-2.22.37-.51.36-.97.93-1.32,1.31l1.1,1.02c.47-.51.74-.86,1.08-1.1.26-.18.52-.27.96-.15l.4-1.44ZM5.62,4.25c.18,1.06,1.13,1.57,1.87,1.8.78.24,1.66.28,2.27.18l-.24-1.48c-.37.06-1.02.04-1.58-.14-.6-.19-.8-.44-.84-.62l-1.48.26Z"/>
</svg>