<?xml version="1.0" encoding="UTF-8"?>
<svg id="Layer_1" data-name="Layer 1" xmlns="http://www.w3.org/2000/svg" viewBox="0 0 21.5 21.5">
  <defs>
    <style>
      .cls-1 {
        stroke-dasharray: 0 0 .5 3;
      }

      .cls-1, .cls-2 {
        fill: none;
        stroke: #fff;
        stroke-linecap: round;
        stroke-linejoin: round;
        stroke-width: 1.5px;
      }

      .cls-3 {
        fill: #fff;
        stroke-width: 0px;
      }
    </style>
  </defs>
  <path class="cls-3" d="M11.41,6.75c0-.41-.34-.75-.75-.75s-.75.34-.75.75h1.5ZM9.91,14.75c0,.41.34.75.75.75s.75-.34.75-.75h-1.5ZM11.71,8.88c.23.34.69.44,1.04.21.34-.23.44-.69.21-1.04l-1.25.83ZM9.53,12.7c-.29-.3-.76-.3-1.06-.01-.3.29-.3.76-.01,1.06l1.07-1.05ZM10.66,9.88c-.63,0-.91-.12-1.02-.2-.07-.05-.14-.14-.14-.43h-1.5c0,.6.18,1.2.73,1.62.5.38,1.18.51,1.94.51v-1.5ZM9.5,9.25c0-.36.4-.86,1.16-.86v-1.5c-1.35,0-2.66.94-2.66,2.36h1.5ZM12,12.25c0,.34-.12.51-.29.62-.21.14-.56.24-1.05.24v1.5c.66,0,1.35-.13,1.9-.51.59-.41.94-1.04.94-1.86h-1.5ZM10.66,11.38c.64,0,.96.11,1.12.23.1.08.22.22.22.64h1.5c0-.74-.23-1.4-.82-1.84-.54-.4-1.26-.52-2.01-.52v1.5ZM11.41,7.64v-.89h-1.5v.89h1.5ZM9.91,13.86v.89h1.5v-.89h-1.5ZM10.66,8.39c.49,0,.87.23,1.05.49l1.25-.83c-.48-.72-1.35-1.16-2.29-1.16v1.5ZM10.66,13.11c-.5,0-.91-.19-1.13-.42l-1.07,1.05c.54.55,1.35.87,2.2.87v-1.5Z"/>
  <path class="cls-2" d="M3.33,7.36l-2.58-.15C2.6,2.45,7.91-.25,13.08,1.09c5.51,1.43,8.79,6.92,7.31,12.25-1.22,4.41-5.3,7.34-9.8,7.41"/>
  <path class="cls-1" d="M10.75,20.75C5.25,20.75.75,15.75.75,9.75"/>
</svg>