<?xml version="1.0" encoding="UTF-8"?>
<svg id="Layer_1" data-name="Layer 1" xmlns="http://www.w3.org/2000/svg" viewBox="0 0 20.52 20.5">
  <defs>
    <style>
      .cls-1, .cls-2, .cls-3 {
        fill: none;
        stroke: #fff;
      }

      .cls-1, .cls-3 {
        stroke-linecap: round;
        stroke-linejoin: round;
      }

      .cls-3 {
        stroke-width: 1.5px;
      }
    </style>
  </defs>
  <path class="cls-3" d="M7.39.75c-2.67.06-4.22.31-5.29,1.37-.93.93-1.24,2.23-1.35,4.33M13.13.75c2.67.06,4.22.31,5.29,1.37.93.93,1.24,2.23,1.35,4.33M13.13,19.75c2.67-.06,4.22-.31,5.29-1.37.93-.93,1.24-2.23,1.35-4.33M7.39,19.75c-2.67-.06-4.22-.31-5.29-1.37-.93-.93-1.24-2.23-1.35-4.33"/>
  <ellipse class="cls-2" cx="13.86" cy="9.04" rx="2.19" ry="4.38"/>
  <path class="cls-2" d="M13.86,4.66c-1.7,0-5.22,1.3-7.24,2.11-.93.37-1.52,1.27-1.52,2.27s.59,1.9,1.52,2.27c2.02.81,5.54,2.11,7.24,2.11"/>
  <path class="cls-1" d="M10.03,15.6l-1.06-.59c-1.16-.64-1.81-1.92-1.65-3.25"/>
</svg>