<?xml version="1.0" encoding="UTF-8"?>
<svg id="Layer_1" data-name="Layer 1" xmlns="http://www.w3.org/2000/svg" viewBox="0 0 21.5 21.5">
  <defs>
    <style>
      .cls-1, .cls-2 {
        fill: none;
        stroke: #fff;
        stroke-width: 1.5px;
      }

      .cls-2 {
        stroke-linecap: round;
        stroke-linejoin: round;
      }
    </style>
  </defs>
  <path class="cls-2" d="M16.75.75v8M20.75,4.75h-8"/>
  <path class="cls-1" d="M.75,4.75c0-1.4,0-2.1.27-2.63.24-.47.62-.85,1.09-1.09.53-.27,1.23-.27,2.63-.27s2.1,0,2.63.27c.47.24.85.62,1.09,1.09.27.53.27,1.23.27,2.63s0,2.1-.27,2.63c-.24.47-.62.85-1.09,1.09-.53.27-1.23.27-2.63.27s-2.1,0-2.63-.27c-.47-.24-.85-.62-1.09-1.09-.27-.53-.27-1.23-.27-2.63Z"/>
  <path class="cls-1" d="M.75,16.75c0-1.4,0-2.1.27-2.64.24-.47.62-.85,1.09-1.09.53-.27,1.23-.27,2.63-.27s2.1,0,2.63.27c.47.24.85.62,1.09,1.09.27.53.27,1.23.27,2.64s0,2.1-.27,2.64c-.24.47-.62.85-1.09,1.09-.53.27-1.23.27-2.63.27s-2.1,0-2.63-.27c-.47-.24-.85-.62-1.09-1.09-.27-.53-.27-1.23-.27-2.64Z"/>
  <path class="cls-1" d="M12.75,16.75c0-1.4,0-2.1.27-2.64.24-.47.62-.85,1.09-1.09.53-.27,1.23-.27,2.64-.27s2.1,0,2.64.27c.47.24.85.62,1.09,1.09.27.53.27,1.23.27,2.64s0,2.1-.27,2.64c-.24.47-.62.85-1.09,1.09-.53.27-1.23.27-2.64.27s-2.1,0-2.64-.27c-.47-.24-.85-.62-1.09-1.09-.27-.53-.27-1.23-.27-2.64Z"/>
</svg>