<?xml version="1.0" encoding="UTF-8"?>
<svg id="Layer_1" data-name="Layer 1" xmlns="http://www.w3.org/2000/svg" viewBox="0 0 20.5 21.5">
  <defs>
    <style>
      .cls-1 {
        fill: none;
        stroke: #fff;
        stroke-linecap: round;
        stroke-linejoin: round;
        stroke-width: 1.5px;
      }
    </style>
  </defs>
  <path class="cls-1" d="M10.25.75c-3.01,0-4.96,2.02-7.26,2.75-.94.3-1.41.45-1.6.66-.19.21-.25.52-.36,1.14-1.19,6.6,1.41,12.69,7.61,15.07.67.25,1,.38,1.61.38s.95-.13,1.61-.38c6.2-2.37,8.8-8.47,7.61-15.07-.11-.62-.17-.92-.36-1.14-.19-.21-.66-.36-1.6-.66-2.31-.74-4.26-2.75-7.27-2.75Z"/>
  <path class="cls-1" d="M7.25,11.75s1,0,2,2c0,0,3.18-5,6-6"/>
</svg>