<?xml version="1.0" encoding="UTF-8"?>
<svg id="Layer_1" data-name="Layer 1" xmlns="http://www.w3.org/2000/svg" viewBox="0 0 21.5 19.5">
  <defs>
    <style>
      .cls-1 {
        stroke-width: 1.5px;
      }

      .cls-1, .cls-2 {
        fill: none;
        stroke: #fff;
        stroke-linejoin: round;
      }

      .cls-2 {
        stroke-linecap: round;
        stroke-width: 2px;
      }
    </style>
  </defs>
  <path class="cls-2" d="M5.75,4.75h0M11.74,4.75h0"/>
  <path class="cls-2" d="M16.74,12.25h0M12.75,12.25h0"/>
  <path class="cls-1" d="M8.75,13.75c0,2.76,2.69,5,6,5,.91,0,1.77-.17,2.54-.47.19-.07.39-.1.59-.06l2.87.53-.65-2.03c-.1-.3-.04-.62.11-.89.35-.63.54-1.34.54-2.08,0-2.76-2.69-5-6-5s-6,2.24-6,5Z"/>
  <path class="cls-1" d="M16.62,9c.08-.41.13-.82.13-1.25,0-3.87-3.58-7-8-7S.75,3.88.75,7.75c0,1.11.3,2.16.82,3.1.15.26.2.57.11.85l-.93,3.05,3.91-.76c.21-.04.42-.01.62.07,1.08.46,2.31.71,3.59.69"/>
</svg>