<?xml version="1.0" encoding="UTF-8"?>
<svg id="Layer_1" data-name="Layer 1" xmlns="http://www.w3.org/2000/svg" viewBox="0 0 21.5 21.5">
  <defs>
    <style>
      .cls-1 {
        fill: none;
        stroke: #fff;
        stroke-linecap: round;
        stroke-linejoin: round;
        stroke-width: 1.5px;
      }
    </style>
  </defs>
  <path class="cls-1" d="M10.75.75v17.4c-.36,0-.72.08-.99.24l-2.99,1.78c-2.15,1.28-3.44.33-2.88-2.12l.71-3.09c.13-.58-.1-1.4-.52-1.82l-2.48-2.5c-1.47-1.47-.99-2.96,1.05-3.31l3.19-.53c.54-.09,1.18-.56,1.42-1.06l1.76-3.55c.47-.96,1.1-1.44,1.73-1.44ZM10.75.75h0M13.75,19.59l.98.59c2.14,1.28,3.44.32,2.88-2.12l-.71-3.09c-.13-.58.1-1.4.52-1.82l2.48-2.5c1.46-1.47.99-2.96-1.05-3.31l-3.19-.53c-.53-.09-1.17-.56-1.41-1.06l-.5-1.01"/>
</svg>