<?xml version="1.0" encoding="UTF-8"?>
<svg id="Layer_1" data-name="Layer 1" xmlns="http://www.w3.org/2000/svg" viewBox="0 0 21.5 14.5">
  <defs>
    <style>
      .cls-1 {
        stroke-linecap: round;
      }

      .cls-1, .cls-2 {
        fill: none;
        stroke: #fff;
        stroke-width: 1.5px;
      }
    </style>
  </defs>
  <path class="cls-1" d="M6.08,13.34c-.33.27-.61.41-.91.41-.68,0-1.25-.7-2.38-2.09l-1.51-1.86c-.62-.77-.7-1.91-.19-2.77.59-.98,1.72-1.26,2.6-.77M9.67,3.75c.79-.83,1.64-1.67,2.56-2.51.44-.41,1-.55,1.52-.46"/>
  <path class="cls-2" d="M12.86,11.56c2.26-2.62,4.44-4.4,7.18-6.91.82-.75.95-2.07.3-3.01-.68-.99-1.98-1.19-2.86-.4-2.51,2.26-4.46,4.43-6.32,6.75-.1.12-.15.18-.2.22-.13.09-.29.09-.42,0-.05-.03-.1-.09-.2-.21l-.99-1.21c-.9-1.1-2.52-.98-3.27.25-.53.86-.45,2,.19,2.77l1.55,1.86c1.16,1.39,1.74,2.09,2.43,2.09.69,0,1.33-.73,2.59-2.19Z"/>
</svg>