<?xml version="1.0" encoding="UTF-8"?>
<svg id="Layer_1" data-name="Layer 1" xmlns="http://www.w3.org/2000/svg" viewBox="0 0 21.5 21.5">
  <defs>
    <style>
      .cls-1, .cls-2 {
        fill: none;
        stroke: #fff;
        stroke-linecap: round;
        stroke-width: 1.5px;
      }

      .cls-2 {
        stroke-linejoin: round;
      }
    </style>
  </defs>
  <path class="cls-1" d="M.75,20.75h11c4.97,0,9-4.03,9-9S16.72,2.75,11.75,2.75C7.12,2.75,3.25,6.25,2.75,10.75"/>
  <path class="cls-2" d="M17.25,4.25l1-1M4.25,3.25l1,1"/>
  <path class="cls-1" d="M15.25,7.75l-2.94,2.94M12.31,10.69c-.27-.27-.65-.44-1.06-.44-.83,0-1.5.67-1.5,1.5s.67,1.5,1.5,1.5,1.5-.67,1.5-1.5c0-.41-.17-.79-.44-1.06Z"/>
  <path class="cls-2" d="M11.25,2.25V.75"/>
  <path class="cls-2" d="M9.25.75h4"/>
  <path class="cls-2" d="M.75,13.75h3"/>
  <path class="cls-2" d="M.75,17.75h5"/>
</svg>