<?xml version="1.0" encoding="UTF-8"?>
<svg id="Layer_1" data-name="Layer 1" xmlns="http://www.w3.org/2000/svg" viewBox="0 0 20.5 20.5">
  <defs>
    <style>
      .cls-1, .cls-2 {
        fill: none;
        stroke: #fff;
        stroke-linecap: round;
        stroke-width: 1.5px;
      }

      .cls-2 {
        stroke-linejoin: round;
      }
    </style>
  </defs>
  <path class="cls-2" d="M7.38.75c-2.67.06-4.22.31-5.29,1.37-.93.93-1.24,2.23-1.35,4.33M13.12.75c2.67.06,4.22.31,5.29,1.37.93.93,1.24,2.23,1.35,4.33M13.12,19.75c2.67-.06,4.22-.31,5.29-1.37.93-.93,1.24-2.23,1.35-4.33M7.38,19.75c-2.67-.06-4.22-.31-5.29-1.37-.93-.93-1.24-2.23-1.35-4.33"/>
  <path class="cls-1" d="M5.75,15.25c2.33-2.44,6.64-2.56,9,0M12.75,7.75c0,1.38-1.12,2.5-2.5,2.5s-2.5-1.12-2.5-2.5,1.12-2.5,2.5-2.5,2.5,1.12,2.5,2.5Z"/>
</svg>