<?xml version="1.0" encoding="UTF-8"?>
<svg id="Layer_1" data-name="Layer 1" xmlns="http://www.w3.org/2000/svg" viewBox="0 0 22.5 19">
  <defs>
    <style>
      .cls-1 {
        stroke-linecap: round;
      }

      .cls-1, .cls-2 {
        fill: none;
        stroke: #fff;
        stroke-width: 1.5px;
      }
    </style>
  </defs>
  <path class="cls-1" d="M17.87,17.25h.49c1.15,0,2.06-.52,2.89-1.26,2.09-1.86-2.82-3.74-4.49-3.74M14.75,2.32c.23-.05.46-.07.7-.07,1.82,0,3.3,1.34,3.3,3s-1.48,3-3.3,3c-.24,0-.48-.02-.7-.07"/>
  <path class="cls-2" d="M3.73,13.36c-1.18.63-4.27,1.92-2.39,3.54.92.79,1.94,1.35,3.23,1.35h7.35c1.29,0,2.31-.56,3.23-1.35,1.88-1.61-1.21-2.9-2.39-3.54-2.76-1.48-6.27-1.48-9.04,0Z"/>
  <path class="cls-2" d="M12.25,4.75c0,2.21-1.79,4-4,4s-4-1.79-4-4S6.04.75,8.25.75s4,1.79,4,4Z"/>
</svg>