<?xml version="1.0" encoding="UTF-8"?>
<svg id="Layer_1" data-name="Layer 1" xmlns="http://www.w3.org/2000/svg" viewBox="0 0 20.5 21.5">
  <defs>
    <style>
      .cls-1, .cls-2 {
        fill: none;
        stroke: #fff;
        stroke-linecap: round;
        stroke-width: 1.5px;
      }

      .cls-2 {
        stroke-linejoin: round;
      }
    </style>
  </defs>
  <path class="cls-2" d="M12.87,4.5c.27-.75,1.11-1.14,1.86-.86s1.14,1.1.87,1.85l-.66,1.81M12.87,4.5l.66-1.81c.27-.75-.11-1.58-.87-1.85-.75-.27-1.58.11-1.86.86l-.5,1.36M12.87,4.5l-1.82,4.98M10.32,3.06c.27-.75-.11-1.58-.87-1.85-.75-.27-1.58.11-1.86.86l-2.8,7.66-.93-2c-.41-.88-1.49-1.21-2.33-.7-.64.39-.93,1.15-.71,1.86l1.75,5.35c.33,1.02.23,2.37-.14,3.38M10.32,3.06l-1.65,4.53M11.05,20.75l.38-1.05c.18-.48.54-.87.99-1.12.52-.29,1.19-.7,1.53-1.09.59-.67.95-1.66,1.66-3.62l2.04-5.58c.27-.75-.11-1.58-.87-1.85-.75-.27-1.58.11-1.86.86M13.45,11.37l1.49-4.07"/>
  <path class="cls-1" d="M19.58,11.75c.55,1.64-.27,3.43-1.83,4"/>
</svg>