<?xml version="1.0" encoding="UTF-8"?>
<svg id="Layer_1" data-name="Layer 1" xmlns="http://www.w3.org/2000/svg" viewBox="0 0 21.5 21.5">
  <defs>
    <style>
      .cls-1, .cls-2, .cls-3 {
        fill: none;
        stroke: #fff;
        stroke-width: 1.5px;
      }

      .cls-1, .cls-3 {
        stroke-linecap: round;
      }

      .cls-3 {
        stroke-linejoin: round;
      }
    </style>
  </defs>
  <path class="cls-1" d="M20.75,9.75c0,2.63-.09,4.04-.81,5.08-.3.43-.68.8-1.11,1.11-1.16.81-2.8.81-6.08.81h-4c-3.28,0-4.92,0-6.08-.81-.43-.3-.8-.68-1.11-1.11-.81-1.16-.81-2.8-.81-6.08S.75,3.83,1.56,2.67c.3-.43.68-.8,1.11-1.11,1.16-.81,2.8-.81,6.08-.81h1.5"/>
  <path class="cls-3" d="M12.75,4.75s1,0,2,2c0,0,3.18-5,6-6"/>
  <path class="cls-3" d="M9.75,13.75h2"/>
  <path class="cls-2" d="M10.75,16.75v4"/>
  <path class="cls-1" d="M6.75,20.75h8"/>
</svg>