<?xml version="1.0" encoding="UTF-8"?>
<svg id="carwash" xmlns="http://www.w3.org/2000/svg" xmlns:xlink="http://www.w3.org/1999/xlink" viewBox="0 0 779.05 281">
  <defs>
    <style>
      .cls-1 {
        stroke: url(#New_Gradient_Swatch_1);
      }

      .cls-1, .cls-2, .cls-3 {
        fill: none;
      }

      .cls-2 {
        stroke: url(#New_Gradient_Swatch_1-3);
      }

      .cls-3 {
        stroke: url(#New_Gradient_Swatch_1-2);
      }
    </style>
    <linearGradient id="New_Gradient_Swatch_1" data-name="New Gradient Swatch 1" x1="0" y1="140.5" x2="259.85" y2="140.5" gradientUnits="userSpaceOnUse">
      <stop offset=".12" stop-color="#3957c1"/>
      <stop offset="1" stop-color="#2d4cb8" stop-opacity="0"/>
    </linearGradient>
    <linearGradient id="New_Gradient_Swatch_1-2" data-name="New Gradient Swatch 1" x1="248.7" x2="523.11" xlink:href="#New_Gradient_Swatch_1"/>
    <linearGradient id="New_Gradient_Swatch_1-3" data-name="New Gradient Swatch 1" x1="519.53" y1="140.5" x2="779.05" y2="140.5" xlink:href="#New_Gradient_Swatch_1"/>
  </defs>
  <path class="cls-1" d="M99.11,169.5l-36.35,37.9v68.46H.5V5.14h62.25v126.46L182.65,5.14h69.61l-112.15,120.67,118.71,150.04h-73.09l-86.63-106.35Z"/>
  <path class="cls-3" d="M417.04,179.96v95.9h-62.65v-96.69L249.58,5.14h66.52l72.31,120.27L460.73,5.14h61.5l-105.19,174.81Z"/>
  <path class="cls-2" d="M520.03,140.5C520.03,58.9,582.67.5,666.98.5c46.79,0,85.85,17.02,111.38,47.96l-40.23,37.13c-18.17-20.88-40.98-31.71-68.06-31.71-50.67,0-86.63,35.58-86.63,86.63s35.96,86.63,86.63,86.63c27.08,0,49.89-10.83,68.06-32.1l40.23,37.13c-25.52,31.33-64.58,48.35-111.77,48.35-83.92,0-146.57-58.4-146.57-140Z"/>
</svg>