<?xml version="1.0" encoding="UTF-8"?>
<svg id="Layer_1" data-name="Layer 1" xmlns="http://www.w3.org/2000/svg" viewBox="0 0 55.18 47.45">
  <defs>
    <style>
      .cls-1, .cls-2, .cls-3, .cls-4, .cls-5 {
        fill: none;
        stroke-width: 2px;
      }

      .cls-1, .cls-2, .cls-4, .cls-5 {
        stroke-linecap: round;
      }

      .cls-1, .cls-5 {
        stroke: #54d3ca;
      }

      .cls-2, .cls-3, .cls-4 {
        stroke: #fff;
      }

      .cls-4, .cls-5 {
        stroke-linejoin: round;
      }

      .cls-6 {
        fill: #54d3ca;
      }

      .cls-6, .cls-7, .cls-8 {
        stroke-width: 0px;
      }

      .cls-7 {
        fill: #b62b4a;
      }

      .cls-8 {
        fill: #e46542;
      }
    </style>
  </defs>
  <path class="cls-6" d="M4.5,15c1.93,0,3.5-1.57,3.5-3.5s-1.57-3.5-3.5-3.5-3.5,1.57-3.5,3.5,1.57,3.5,3.5,3.5h0ZM4.5,10.31c.65,0,1.19.53,1.19,1.19s-.53,1.19-1.19,1.19-1.19-.53-1.19-1.19.53-1.19,1.19-1.19h0Z"/>
  <path class="cls-7" d="M37,12c.55,0,1-.45,1-1s-.45-1-1-1-1,.45-1,1,.45,1,1,1Z"/>
  <path class="cls-7" d="M2,24c0-.55-.45-1-1-1s-1,.45-1,1,.45,1,1,1,1-.45,1-1h0Z"/>
  <path class="cls-2" d="M31.54,34.28c0-6.72-5.45-12.17-12.17-12.17-6.26,0-11.49,4.73-12.17,10.81"/>
  <path class="cls-1" d="M4.5,46.45h14.87c2.25,0,4.35-.61,6.16-1.67"/>
  <path class="cls-4" d="M26.81,24.15l1.35-1.35M9.23,22.79l1.35,1.35"/>
  <path class="cls-2" d="M24.1,28.88l-3.97,3.97M20.13,32.85c-.37-.37-.87-.59-1.43-.59-1.12,0-2.03.91-2.03,2.03s.91,2.03,2.03,2.03,2.03-.91,2.03-2.03c0-.56-.23-1.07-.59-1.43h-.01Z"/>
  <path class="cls-4" d="M18.69,21.44v-2.03"/>
  <path class="cls-4" d="M15.99,19.41h5.41"/>
  <path class="cls-5" d="M4.5,36.99h4.06"/>
  <path class="cls-5" d="M4.5,42.4h6.76"/>
  <path class="cls-4" d="M41.34,45.78h-7.99c-2.09,0-3.75-1.02-5.24-2.44-3.05-2.91,1.96-5.24,3.87-6.37,2.84-1.69,6.16-2.31,9.36-1.86,1.16.16,2.29.47,3.38.91"/>
  <path class="cls-3" d="M46.75,24.82c0,3.36-2.72,6.08-6.08,6.08s-6.08-2.72-6.08-6.08,2.72-6.08,6.08-6.08,6.08,2.72,6.08,6.08Z"/>
  <path class="cls-2" d="M49.45,45.78v-9.46M44.72,41.04h9.46"/>
  <path class="cls-8" d="M54.19,7.03l-4.2-2.3-2.3-4.21c-.38-.69-1.51-.69-1.88,0l-2.3,4.21-4.2,2.3c-.34.19-.56.55-.56.94s.21.76.56.94l4.2,2.3,2.3,4.21c.19.34.55.56.94.56s.75-.22.94-.56l2.3-4.21,4.2-2.3c.34-.19.56-.55.56-.94s-.21-.76-.56-.94ZM48.68,9.49c-.18.1-.33.25-.43.43l-1.51,2.76-1.51-2.76c-.1-.18-.25-.33-.43-.43l-2.76-1.51,2.76-1.51c.18-.1.33-.25.43-.43l1.51-2.76,1.51,2.76c.1.18.25.33.43.43l2.76,1.51-2.76,1.51Z"/>
</svg>