<?xml version="1.0" encoding="UTF-8"?>
<svg id="Layer_1" data-name="Layer 1" xmlns="http://www.w3.org/2000/svg" viewBox="0 0 59.2 58.27">
  <defs>
    <style>
      .cls-1 {
        stroke: #b62b4a;
      }

      .cls-1, .cls-2, .cls-3 {
        fill: none;
        stroke-width: 1.5px;
      }

      .cls-1, .cls-3 {
        stroke-linecap: round;
      }

      .cls-2, .cls-3 {
        stroke: #fff;
      }

      .cls-4 {
        fill: #54d3ca;
      }

      .cls-4, .cls-5, .cls-6, .cls-7 {
        stroke-width: 0px;
      }

      .cls-5 {
        fill: #b62b4a;
      }

      .cls-6 {
        fill: #fff;
      }

      .cls-7 {
        fill: #e46542;
      }

      .cls-3 {
        stroke-linejoin: round;
      }
    </style>
  </defs>
  <path class="cls-5" d="M34.2,5.38l2.07,1.14,1.13,2.08c.17.31.49.5.85.5s.68-.19.85-.5l1.13-2.08,2.07-1.14c.31-.17.5-.5.5-.85s-.19-.68-.5-.85l-2.07-1.14-1.13-2.08c-.34-.62-1.36-.62-1.7,0l-1.13,2.08-2.07,1.14c-.31.17-.5.5-.5.85s.19.68.5.85h0ZM37.45,4.1c.16-.09.3-.22.38-.39l.42-.77.42.77c.09.16.22.3.38.39l.77.42-.77.42c-.16.09-.3.22-.38.39l-.42.77-.42-.77c-.09-.16-.22-.3-.38-.39l-.77-.42.77-.42Z"/>
  <path class="cls-6" d="M42.1,47.24h5.64c3.46,0,6.27-2.86,6.27-6.36v-22.47c0-1.53-.55-2.98-1.51-4.12l2.54-1.41c.32-.18.52-.51.52-.88s-.2-.71-.52-.88h0l-3.88-2.15-2.12-3.93c-.35-.65-1.39-.65-1.74,0l-2.12,3.93-3.89,2.15c-.32.18-.52.51-.52.88v.06H12.65c-3.46,0-6.27,2.85-6.27,6.35v22.47c0,3.5,2.81,6.35,6.27,6.35h2.83l-.17-2.01h-2.66c-2.36,0-4.29-1.95-4.29-4.34v-22.47c0-2.39,1.92-4.34,4.29-4.34h30.77l1.74.96,2.12,3.93c.17.32.51.52.87.52s.7-.2.87-.52l1.87-3.46c.71.79,1.13,1.81,1.13,2.9v22.47c0,2.39-1.92,4.34-4.29,4.34h-5.64M46.37,10.58c.17-.09.3-.23.39-.4l1.39-2.58,1.39,2.58c.09.17.23.31.39.4l2.55,1.41-2.55,1.41c-.17.09-.3.23-.39.4l-1.39,2.58-1.39-2.58c-.09-.17-.23-.31-.39-.4l-2.55-1.41,2.55-1.41Z"/>
  <path class="cls-4" d="M4.55,1.81c-.5,0-.91.48-.91,1.07v1.51c0,.59.41,1.07.91,1.07s.91-.48.91-1.07v-1.51c0-.59-.41-1.07-.91-1.07Z"/>
  <path class="cls-4" d="M4.55,7.28c-.5,0-.91.48-.91,1.07v1.51c0,.59.41,1.07.91,1.07s.91-.48.91-1.07v-1.51c0-.59-.41-1.07-.91-1.07Z"/>
  <path class="cls-4" d="M2.58,5.45h-1.51c-.59,0-1.07.41-1.07.91s.48.91,1.07.91h1.51c.59,0,1.07-.41,1.07-.91s-.48-.91-1.07-.91h0Z"/>
  <path class="cls-4" d="M8.04,7.28c.59,0,1.07-.41,1.07-.91s-.48-.91-1.07-.91h-1.51c-.59,0-1.07.41-1.07.91s.48.91,1.07.91h1.51Z"/>
  <path class="cls-7" d="M51.91,50.99c-2.01,0-3.64,1.63-3.64,3.64s1.63,3.64,3.64,3.64,3.64-1.63,3.64-3.64-1.63-3.64-3.64-3.64h0ZM51.91,56.2c-.86,0-1.56-.7-1.56-1.56s.7-1.56,1.56-1.56,1.56.7,1.56,1.56-.7,1.56-1.56,1.56Z"/>
  <path class="cls-7" d="M14.57,8.19c.5,0,.91-.41.91-.91s-.41-.91-.91-.91-.91.41-.91.91.41.91.91.91Z"/>
  <path class="cls-7" d="M58.29,43.7c-.5,0-.91.41-.91.91s.41.91.91.91.91-.41.91-.91-.41-.91-.91-.91Z"/>
  <path class="cls-4" d="M15.94,17.29c-1.76,0-3.19,1.43-3.19,3.19s1.43,3.19,3.19,3.19,3.19-1.43,3.19-3.19-1.43-3.19-3.19-3.19ZM15.94,21.54c-.59,0-1.06-.48-1.06-1.06s.48-1.06,1.06-1.06,1.06.48,1.06,1.06-.48,1.06-1.06,1.06Z"/>
  <path class="cls-4" d="M47.81,31.87c-1.76,0-3.19,1.43-3.19,3.19s1.43,3.19,3.19,3.19,3.19-1.43,3.19-3.19-1.43-3.19-3.19-3.19ZM47.81,36.13c-.59,0-1.06-.48-1.06-1.06s.48-1.06,1.06-1.06,1.06.48,1.06,1.06-.48,1.06-1.06,1.06Z"/>
  <path class="cls-7" d="M14.12,26.4c-.75,0-1.37.41-1.37.91s.61.91,1.37.91,1.37-.41,1.37-.91-.61-.91-1.37-.91Z"/>
  <path class="cls-3" d="M29.53,52.81h-7.3c-1.76,0-3.16-.86-4.42-2.05-2.57-2.45,1.65-4.41,3.26-5.37,2.22-1.32,4.8-1.87,7.32-1.63"/>
  <path class="cls-2" d="M32.38,35.15c0,2.83-2.3,5.13-5.13,5.13s-5.13-2.3-5.13-5.13,2.3-5.13,5.13-5.13,5.13,2.3,5.13,5.13Z"/>
  <path class="cls-1" d="M31.83,45.29c1.22-.73,2.29-.44,2.93.03.26.19.39.29.47.29s.21-.1.47-.29c.64-.47,1.71-.76,2.93-.03,1.6.96,1.97,4.11-1.73,6.77-.7.51-1.06.76-1.67.76s-.96-.25-1.67-.76c-3.7-2.66-3.34-5.82-1.73-6.77Z"/>
</svg>