<?xml version="1.0" encoding="UTF-8"?>
<svg id="Layer_1" data-name="Layer 1" xmlns="http://www.w3.org/2000/svg" viewBox="0 0 64 53.75">
  <defs>
    <style>
      .cls-1, .cls-2 {
        fill: none;
        stroke: #fff;
        stroke-width: 2px;
      }

      .cls-2 {
        stroke-linecap: round;
        stroke-linejoin: round;
      }

      .cls-3 {
        fill: #54d3ca;
      }

      .cls-3, .cls-4, .cls-5 {
        stroke-width: 0px;
      }

      .cls-4 {
        fill: #b62b4a;
      }

      .cls-5 {
        fill: #e46542;
      }
    </style>
  </defs>
  <path class="cls-5" d="M63.44,25.03l-4.2-2.3-2.3-4.21c-.38-.69-1.51-.69-1.88,0l-2.3,4.21-4.2,2.3c-.34.19-.56.55-.56.94s.21.76.56.94l4.2,2.3,2.3,4.21c.19.34.55.56.94.56s.75-.22.94-.56l2.3-4.21,4.2-2.3c.34-.19.56-.55.56-.94s-.21-.76-.56-.94ZM57.93,27.49c-.18.1-.33.25-.43.43l-1.51,2.76-1.51-2.76c-.1-.18-.25-.33-.43-.43l-2.76-1.51,2.76-1.51c.18-.1.33-.25.43-.43l1.51-2.76,1.51,2.76c.1.18.25.33.43.43l2.76,1.51-2.76,1.51Z"/>
  <path class="cls-4" d="M5,4c.55,0,1-.52,1-1.17v-1.66c0-.65-.45-1.17-1-1.17s-1,.52-1,1.17v1.66c0,.65.45,1.17,1,1.17Z"/>
  <path class="cls-4" d="M5,10c.55,0,1-.52,1-1.17v-1.66c0-.65-.45-1.17-1-1.17s-1,.52-1,1.17v1.66c0,.65.45,1.17,1,1.17Z"/>
  <path class="cls-4" d="M1.17,5h1.66c.65,0,1.17-.45,1.17-1s-.52-1-1.17-1h-1.66c-.65,0-1.17.45-1.17,1s.52,1,1.17,1Z"/>
  <path class="cls-4" d="M7.17,5h1.66c.65,0,1.17-.45,1.17-1s-.52-1-1.17-1h-1.66c-.65,0-1.17.45-1.17,1s.52,1,1.17,1Z"/>
  <path class="cls-3" d="M42,14.5c0,1.93,1.57,3.5,3.5,3.5s3.5-1.57,3.5-3.5-1.57-3.5-3.5-3.5-3.5,1.57-3.5,3.5ZM47,14.5c0,.83-.67,1.5-1.5,1.5s-1.5-.67-1.5-1.5.67-1.5,1.5-1.5,1.5.67,1.5,1.5Z"/>
  <path class="cls-4" d="M60,11c.55,0,1-.45,1-1s-.45-1-1-1-1,.45-1,1,.45,1,1,1h0Z"/>
  <path class="cls-1" d="M31.91,45.84c-1.33.89-4.83,2.72-2.7,5,1.04,1.11,2.2,1.91,3.65,1.91h8.31c1.46,0,2.61-.8,3.65-1.91,2.13-2.28-1.37-4.1-2.7-5-3.13-2.09-7.09-2.09-10.22,0h0Z"/>
  <path class="cls-1" d="M41.26,34.73c0,2.34-1.9,4.24-4.24,4.24s-4.24-1.9-4.24-4.24,1.9-4.24,4.24-4.24,4.24,1.9,4.24,4.24Z"/>
  <path class="cls-3" d="M37.02,16.18c.88,0,1.59-.71,1.59-1.59s-.71-1.59-1.59-1.59v3.18ZM20.06,13c-.88,0-1.59.71-1.59,1.59s.71,1.59,1.59,1.59v-3.18ZM20.06,19.36c-.88,0-1.59.71-1.59,1.59s.71,1.59,1.59,1.59v-3.18ZM30.66,22.54c.88,0,1.59-.71,1.59-1.59s-.71-1.59-1.59-1.59v3.18ZM37.02,13h-16.96v3.18h16.96v-3.18ZM20.06,22.54h10.6v-3.18h-10.6v3.18Z"/>
  <path class="cls-2" d="M13.7,28.37v9.54c0,2,0,3-.62,3.62s-1.62.62-3.62.62h-2.12c-2,0-3,0-3.62-.62s-.62-1.62-.62-3.62v-5.3c0-2,0-3,.62-3.62.62-.62,1.62-.62,3.62-.62,0,0,6.36,0,6.36,0ZM13.7,28.37h10.6"/>
  <path class="cls-1" d="M12.64,18.83c0,2.34-1.9,4.24-4.24,4.24s-4.24-1.9-4.24-4.24,1.9-4.24,4.24-4.24,4.24,1.9,4.24,4.24Z"/>
</svg>