<?xml version="1.0" encoding="UTF-8"?>
<svg id="Layer_1" data-name="Layer 1" xmlns="http://www.w3.org/2000/svg" viewBox="0 0 61.57 48.46">
  <defs>
    <style>
      .cls-1 {
        stroke: #54d3ca;
      }

      .cls-1, .cls-2, .cls-3 {
        fill: none;
        stroke-linecap: round;
        stroke-width: 1.5px;
      }

      .cls-1, .cls-3 {
        stroke-linejoin: round;
      }

      .cls-2, .cls-3 {
        stroke: #fff;
      }

      .cls-4 {
        fill: #b62b4a;
      }

      .cls-4, .cls-5 {
        stroke-width: 0px;
      }

      .cls-5 {
        fill: #e46542;
      }
    </style>
  </defs>
  <path class="cls-5" d="M32.45,39.51l-4.2-2.3-2.3-4.21c-.38-.69-1.51-.69-1.88,0l-2.3,4.21-4.2,2.3c-.34.19-.56.55-.56.94s.21.76.56.94l4.2,2.3,2.3,4.21c.19.34.55.56.94.56s.75-.22.94-.56l2.3-4.21,4.2-2.3c.34-.19.56-.55.56-.94s-.21-.76-.56-.94ZM26.95,41.96c-.18.1-.33.25-.43.43l-1.51,2.76-1.51-2.76c-.1-.18-.25-.33-.43-.43l-2.76-1.51,2.76-1.51c.18-.1.33-.25.43-.43l1.51-2.76,1.51,2.76c.1.18.25.33.43.43l2.76,1.51-2.76,1.51Z"/>
  <path class="cls-5" d="M51.1,4c.55,0,1-.52,1-1.17v-1.66c0-.65-.45-1.17-1-1.17s-1,.52-1,1.17v1.66c0,.65.45,1.17,1,1.17Z"/>
  <path class="cls-5" d="M51.1,10c.55,0,1-.52,1-1.17v-1.66c0-.65-.45-1.17-1-1.17s-1,.52-1,1.17v1.66c0,.65.45,1.17,1,1.17Z"/>
  <path class="cls-5" d="M47.27,5h1.66c.65,0,1.17-.45,1.17-1s-.52-1-1.17-1h-1.66c-.65,0-1.17.45-1.17,1s.52,1,1.17,1Z"/>
  <path class="cls-5" d="M53.27,5h1.66c.65,0,1.17-.45,1.17-1s-.52-1-1.17-1h-1.66c-.65,0-1.17.45-1.17,1s.52,1,1.17,1Z"/>
  <path class="cls-4" d="M0,7c0,1.93,1.57,3.5,3.5,3.5s3.5-1.57,3.5-3.5-1.57-3.5-3.5-3.5S0,5.07,0,7ZM5,7c0,.83-.67,1.5-1.5,1.5s-1.5-.67-1.5-1.5.67-1.5,1.5-1.5,1.5.67,1.5,1.5Z"/>
  <path class="cls-4" d="M9.19,3c.55,0,1-.45,1-1s-.45-1-1-1-1,.45-1,1,.45,1,1,1h0Z"/>
  <path class="cls-1" d="M50.2,20.95c-1.46-1.46-2.19-2.19-3.1-2.19s-1.64.73-3.1,2.19c-.88.88-1.75,1.29-3,1.29-1.09,0-2.65-.21-3.5.65-.85.85-.64,2.4-.64,3.49,0,1.25-.41,2.12-1.29,3-1.46,1.46-2.19,2.19-2.19,3.1s.73,1.64,2.19,3.1c.98.98,1.29,1.62,1.29,3,0,1.09-.21,2.65.65,3.5.85.85,2.4.64,3.49.64,1.33,0,1.97.26,2.93,1.21.81.81,1.9,2.27,3.18,2.27s2.37-1.46,3.18-2.27c.95-.95,1.59-1.21,2.93-1.21,1.09,0,2.63.21,3.49-.64M58.62,29.37c1.46,1.46,2.19,2.19,2.19,3.1s-.73,1.64-2.19,3.1c-.98.98-1.29,1.62-1.29,3,0,1.09.21,2.65-.65,3.5M56.69,42.07h0"/>
  <path class="cls-1" d="M41.61,30.15s3.09-.42,5.49,5.06c0,0,6.94-13.72,13.72-16.46"/>
  <path class="cls-3" d="M20.66,3.66c-4.05.09-6.4.47-8.02,2.08-1.41,1.41-1.88,3.38-2.05,6.57M29.36,3.66c4.05.09,6.4.47,8.02,2.08,1.41,1.41,1.88,3.38,2.05,6.57M20.66,32.47c-4.05-.09-6.4-.47-8.02-2.08-1.41-1.41-1.88-3.38-2.05-6.57"/>
  <path class="cls-2" d="M18.19,25.65c3.53-3.7,10.07-3.88,13.65,0M28.8,14.28c0,2.09-1.7,3.79-3.79,3.79s-3.79-1.7-3.79-3.79,1.7-3.79,3.79-3.79,3.79,1.7,3.79,3.79Z"/>
</svg>